P2
# CREATOR: GIMP PNM Filter Version 1.1
60 68
255
255
255
255
255
255
255
255
255
255
255
255
255
255
255
255
255
255
255
255
255
255
255
255
255
255
255
255
255
255
255
255
255
255
255
255
255
255
255
255
255
255
255
255
255
255
255
255
255
255
255
255
255
255
255
255
255
255
255
255
255
255
255
255
255
255
255
255
255
255
255
255
255
255
255
255
255
255
255
255
255
255
255
255
255
255
255
255
255
255
255
255
255
255
255
255
255
255
255
255
255
255
255
255
255
255
255
255
255
255
255
255
255
255
255
255
255
255
255
255
255
255
255
255
255
255
255
255
255
255
255
255
255
255
255
255
255
255
255
255
255
254
255
222
121
57
24
17
23
50
99
182
255
255
255
255
255
255
255
255
206
255
255
255
255
255
255
255
255
255
255
255
255
255
255
255
255
255
255
255
255
255
255
255
255
255
255
255
255
255
255
255
255
255
255
255
255
251
188
116
67
191
156
17
17
17
17
17
17
17
17
17
17
139
255
255
255
255
255
154
17
213
255
255
255
255
255
255
255
255
255
255
255
255
255
255
255
255
255
255
255
255
255
255
255
255
255
255
255
255
255
255
255
255
255
192
83
17
17
17
193
255
17
17
17
17
17
17
17
17
17
17
17
17
61
255
255
255
255
163
17
17
20
45
42
19
17
26
59
127
220
255
255
255
255
255
255
255
255
255
255
255
255
255
255
255
255
255
255
255
255
255
255
163
31
17
17
17
17
17
222
255
70
17
17
17
17
17
17
17
17
17
17
17
17
160
255
255
255
255
64
17
17
17
17
17
17
17
17
17
17
122
255
255
255
255
255
255
255
255
255
255
255
255
255
255
255
255
255
255
255
230
39
17
17
17
17
17
17
17
74
218
255
72
17
17
17
17
17
17
17
17
17
17
17
137
255
255
255
255
255
226
17
17
17
25
125
128
67
17
17
17
233
255
255
255
255
255
255
255
255
255
255
255
255
255
255
255
255
255
255
144
17
17
17
17
17
17
25
76
33
37
52
242
192
71
19
17
17
17
17
17
17
17
17
232
255
255
255
255
248
148
17
17
17
17
17
65
210
30
140
181
205
255
255
255
255
255
255
255
255
255
255
255
255
255
255
255
255
227
115
17
94
141
86
76
103
188
255
182
17
17
47
255
94
27
22
17
17
17
17
17
17
41
215
255
255
255
255
255
68
17
17
17
17
17
17
17
169
212
234
27
17
39
245
255
255
255
255
255
255
255
255
255
255
255
255
247
109
17
17
17
17
18
84
129
176
197
213
252
84
17
17
205
35
17
17
17
17
17
17
106
200
255
255
255
255
255
255
155
17
17
17
17
17
17
103
209
151
84
50
53
18
17
92
255
255
255
255
255
255
255
255
255
255
255
234
22
17
17
17
17
17
17
17
17
17
17
43
33
34
49
75
63
166
23
17
17
17
17
17
225
255
255
255
255
255
255
252
17
17
17
17
17
17
17
175
197
114
121
137
128
74
17
46
255
255
255
255
255
255
255
255
255
255
255
67
17
17
17
17
17
17
17
17
17
36
149
17
17
127
255
255
255
242
255
88
17
17
17
17
255
255
255
255
255
255
255
123
17
17
17
17
17
17
17
45
77
66
48
49
64
85
208
85
255
255
255
255
255
255
255
255
255
255
255
233
77
44
58
52
57
67
103
161
236
255
129
17
17
198
255
255
255
255
59
17
17
17
17
17
243
255
255
255
255
255
240
17
17
17
17
17
17
17
17
17
29
170
255
255
255
255
255
250
255
255
255
255
255
255
255
255
255
255
229
61
17
17
211
248
255
250
238
224
208
149
112
47
24
21
163
205
223
252
33
17
17
17
17
17
209
255
255
255
255
255
91
17
17
17
17
17
17
17
17
23
247
255
255
255
255
255
255
255
255
250
174
192
254
255
255
255
255
165
17
17
17
17
17
17
17
17
17
17
17
17
37
47
79
90
174
248
255
255
143
17
17
17
17
17
138
255
255
255
255
196
17
17
17
17
17
17
17
17
17
161
255
255
255
255
255
255
255
255
255
89
17
17
79
254
255
255
193
17
17
17
17
17
17
17
17
17
17
17
17
97
17
172
255
255
255
255
237
212
227
161
17
17
17
17
33
255
255
255
245
21
17
17
17
17
17
17
17
17
17
220
255
255
255
255
255
255
255
255
255
23
27
93
126
247
255
255
229
41
17
17
17
17
17
17
17
17
88
175
255
155
17
98
180
164
148
223
34
17
17
17
17
17
17
17
17
150
255
229
21
17
104
17
17
17
17
17
17
17
17
215
255
255
255
255
255
255
255
255
255
54
53
17
17
71
255
238
235
255
247
142
26
17
17
17
17
55
255
255
219
27
17
17
17
116
255
255
98
17
17
17
17
17
17
17
17
17
223
255
213
252
212
17
17
34
17
17
17
17
17
138
255
255
255
255
255
255
255
255
255
59
37
26
37
90
185
17
99
80
17
17
17
17
17
17
17
23
255
255
87
17
17
17
17
255
255
255
255
109
28
17
17
17
17
17
17
17
24
244
255
255
255
85
59
243
43
17
17
28
17
17
202
255
255
255
255
255
255
255
255
106
17
199
255
251
136
97
17
17
17
17
17
17
17
17
17
17
32
225
238
34
17
17
17
169
244
248
241
228
151
17
17
17
17
17
17
17
17
19
224
255
255
255
236
251
174
17
43
255
54
17
17
250
255
217
238
255
255
255
241
40
17
191
255
255
235
17
17
17
17
17
17
17
17
17
17
17
17
17
46
177
167
78
41
36
17
17
36
23
17
17
17
17
17
17
17
17
17
17
17
123
239
28
17
19
243
255
248
239
255
255
255
255
255
107
17
255
255
188
17
17
17
17
240
255
255
201
43
23
17
17
17
17
17
17
17
17
17
17
17
17
144
255
255
123
17
113
200
17
17
17
17
17
17
17
17
18
17
17
17
17
17
17
17
17
90
207
17
17
30
201
173
159
90
17
17
246
100
17
17
39
17
17
242
255
255
255
255
255
231
180
163
148
154
138
20
17
17
17
17
17
17
144
254
36
17
30
174
184
58
37
35
35
42
87
174
242
19
17
17
17
17
17
17
17
35
80
17
17
17
17
130
17
17
17
139
255
237
42
197
255
17
78
255
255
255
255
255
255
255
255
255
255
232
17
17
17
17
17
17
17
17
17
17
55
174
255
255
227
48
137
212
249
248
252
255
204
157
46
17
17
17
17
17
17
17
17
17
17
17
17
167
17
69
218
47
17
172
255
255
180
17
17
178
177
255
255
255
255
255
255
255
255
255
56
20
17
17
17
17
18
25
43
149
255
255
255
255
17
17
17
17
17
17
88
86
17
112
255
235
140
101
17
17
18
17
17
17
17
17
17
195
76
199
17
17
28
17
229
255
166
17
17
113
255
255
255
255
255
255
255
255
255
255
255
255
214
183
186
212
255
255
246
228
235
249
255
239
17
28
19
17
17
18
17
17
17
153
116
51
17
17
17
17
169
17
17
17
17
17
17
174
93
17
17
134
255
248
221
255
255
245
186
255
255
255
255
255
255
255
255
255
255
255
255
255
255
255
255
255
247
71
17
17
17
17
189
255
255
145
37
75
230
17
17
17
35
90
17
17
17
17
17
17
255
36
17
17
17
17
17
187
164
17
17
211
255
255
255
255
255
255
255
255
255
255
255
255
255
255
255
255
255
255
255
255
255
255
255
191
17
17
17
17
17
17
17
186
255
255
255
255
88
17
17
17
203
25
17
17
17
17
17
67
255
30
17
17
17
18
56
255
214
17
17
132
255
255
255
255
255
255
255
255
255
255
255
255
255
255
255
255
255
255
255
255
255
255
163
17
17
17
23
46
29
17
17
35
255
255
255
181
17
17
17
170
56
17
17
17
17
17
17
178
237
17
17
17
17
22
36
214
255
17
89
136
255
255
255
255
255
255
255
255
255
255
255
255
255
255
255
255
255
255
255
255
255
179
17
17
17
133
255
255
255
119
17
17
214
255
255
255
85
50
231
30
17
17
17
17
17
17
95
255
116
17
17
17
17
17
17
17
178
255
255
255
255
255
255
255
255
201
157
203
255
255
255
255
255
255
255
255
255
255
255
255
217
17
17
17
191
255
255
255
255
176
17
17
199
255
255
255
255
255
227
17
17
17
102
145
130
223
255
152
17
17
17
17
17
17
17
17
17
177
255
252
255
255
255
255
190
17
17
17
156
255
255
255
255
255
255
255
255
255
255
246
21
17
17
197
255
255
255
255
255
78
17
17
234
255
255
255
255
255
255
170
17
17
17
242
241
146
25
17
17
17
17
17
17
17
17
21
17
17
67
17
213
255
255
255
86
18
19
19
101
255
255
255
255
255
255
255
255
255
245
24
17
17
175
255
255
255
255
255
148
17
17
75
255
255
255
255
255
255
147
17
17
17
17
151
129
17
17
17
17
17
17
17
17
17
27
255
215
24
17
17
180
255
255
153
29
84
17
77
166
255
219
224
255
255
255
255
255
212
17
17
17
142
255
255
255
255
255
93
17
17
19
245
255
255
255
255
250
56
17
17
17
17
17
59
144
17
17
17
17
17
17
17
17
17
17
22
90
183
150
108
249
255
255
39
96
17
17
17
136
255
29
105
255
255
255
255
80
17
17
17
97
255
255
255
255
161
17
17
17
23
242
255
255
255
246
76
17
17
17
17
17
17
17
17
183
17
17
17
43
17
17
17
17
17
17
17
17
17
91
255
130
17
25
20
17
17
20
17
103
234
17
17
26
74
29
18
17
17
17
65
255
255
255
141
17
17
17
17
73
255
255
255
216
42
17
17
17
17
17
17
17
17
17
17
113
234
168
255
168
17
17
17
31
42
17
183
250
71
17
255
154
17
17
50
93
84
255
193
102
255
35
17
17
17
17
17
17
17
47
255
255
255
44
17
17
17
127
251
255
255
242
40
17
17
17
17
17
17
17
17
17
17
17
17
17
171
255
255
255
84
17
17
162
226
17
231
255
255
252
255
255
246
78
38
249
255
255
184
250
255
231
27
17
17
17
17
17
41
255
255
255
59
17
17
109
255
255
255
255
206
17
17
17
17
17
17
17
17
17
17
17
17
17
17
17
17
57
228
255
255
209
30
224
255
254
255
255
255
255
255
243
32
17
17
143
255
255
255
255
255
255
195
17
17
17
17
17
238
255
255
190
17
17
79
255
255
255
255
238
17
17
17
17
17
17
17
17
17
17
17
17
17
17
17
17
17
17
17
22
26
235
255
254
255
255
255
255
255
255
255
182
17
62
255
255
203
255
255
255
255
255
46
17
17
17
17
81
255
203
255
139
17
17
223
255
255
255
255
76
17
17
17
17
17
17
17
17
17
17
17
17
17
17
17
17
17
17
17
17
82
255
255
255
255
255
255
255
255
255
255
255
52
18
23
17
244
255
255
255
255
215
17
17
133
18
17
82
255
68
198
143
17
43
255
255
255
255
214
17
17
17
17
17
17
17
17
17
17
17
17
17
17
17
17
17
17
17
17
107
255
255
255
255
255
255
255
255
255
255
255
255
227
17
76
244
255
255
255
255
255
177
17
17
228
206
17
17
29
17
149
194
17
17
220
255
255
255
115
17
17
17
17
17
17
17
17
17
17
17
17
17
76
111
132
155
188
243
248
255
255
255
255
255
255
255
255
255
255
255
255
255
255
254
255
255
255
255
255
255
255
203
17
17
157
255
213
17
17
17
189
255
18
17
20
49
73
28
17
17
17
17
17
17
17
17
17
17
17
34
236
254
255
255
233
245
255
255
255
255
255
255
255
255
255
255
255
255
255
255
255
255
255
255
255
255
255
255
255
255
255
255
99
17
19
244
255
249
165
186
255
255
181
17
17
17
17
17
17
17
17
17
17
17
17
17
17
17
34
255
255
255
255
255
60
17
29
195
255
255
255
255
255
255
255
255
255
255
255
255
255
255
255
255
255
255
255
255
255
255
255
255
255
238
207
206
255
255
255
255
255
255
255
206
21
17
17
17
17
17
17
17
17
17
17
17
17
17
162
255
255
255
255
228
17
17
17
17
103
255
255
255
255
255
255
255
255
255
255
255
255
255
255
255
255
255
255
255
255
255
255
255
255
255
255
255
255
255
255
255
255
255
255
255
254
239
238
255
22
17
17
17
17
17
17
17
17
17
17
225
255
255
255
91
17
17
17
17
17
85
255
255
255
255
255
255
255
255
255
255
255
255
255
255
255
255
255
255
255
255
255
255
255
255
255
255
255
255
255
255
255
255
255
255
255
255
255
255
104
17
17
17
17
17
17
17
17
17
17
39
255
255
213
17
17
17
17
17
17
17
121
255
255
255
255
255
255
255
255
255
255
255
255
255
255
255
255
255
255
255
255
255
255
255
255
255
255
255
255
255
255
255
255
188
19
28
78
235
255
36
17
17
17
17
17
17
17
17
17
17
138
255
96
17
17
17
17
17
17
17
17
186
255
255
255
255
255
255
255
255
255
255
255
255
255
255
255
255
255
255
255
255
255
255
255
255
255
255
255
255
255
255
255
63
17
17
17
23
179
255
78
17
17
17
17
17
17
17
17
17
17
255
39
17
17
17
17
17
17
17
17
20
255
255
255
255
255
255
255
255
255
255
255
255
255
255
255
255
255
255
255
255
255
255
255
255
255
255
255
255
255
255
255
21
17
17
17
17
17
33
98
146
30
17
17
17
17
17
17
17
17
181
22
17
17
17
17
17
17
17
17
17
120
255
255
255
255
255
255
255
255
255
255
255
255
255
255
255
255
255
255
255
255
255
255
255
255
255
255
255
255
255
255
17
17
17
17
17
17
17
17
17
25
17
17
17
17
17
17
17
17
97
48
17
17
17
17
17
17
17
17
17
55
255
255
255
255
255
255
255
255
255
255
255
255
255
255
255
255
255
255
255
255
255
255
255
255
255
255
255
255
255
255
40
17
17
22
17
17
17
17
17
17
17
17
17
17
17
17
17
17
61
129
84
71
17
17
17
17
17
17
17
48
255
255
255
255
255
255
255
255
255
255
255
255
255
255
255
255
255
255
255
255
255
255
255
255
255
255
255
255
255
255
100
17
17
116
255
84
17
17
17
17
17
17
17
17
17
17
17
17
76
255
255
255
179
17
17
17
17
17
17
88
255
255
255
255
255
255
255
255
255
255
255
255
255
255
255
255
255
255
255
255
255
255
255
255
255
255
255
255
255
255
221
17
17
17
137
255
130
17
17
17
17
17
17
17
17
17
17
17
166
255
255
255
172
17
17
17
17
17
17
205
255
255
255
255
255
255
255
255
255
255
255
255
255
255
255
255
255
255
255
255
255
255
255
255
255
255
255
255
255
255
255
123
17
17
17
255
255
211
33
17
17
17
17
17
17
17
17
84
255
255
203
76
30
17
17
17
17
17
150
255
255
255
255
255
255
255
255
255
255
255
255
255
255
255
255
255
255
255
255
255
255
255
255
255
255
255
255
255
255
255
255
56
17
17
17
180
255
255
255
201
94
17
17
17
17
40
176
255
255
176
17
17
17
17
17
17
17
96
255
255
255
255
255
255
255
255
255
255
255
255
255
255
255
255
255
255
255
255
255
255
255
255
255
255
255
255
255
255
255
255
255
22
17
17
17
87
255
255
255
255
255
255
237
233
242
255
255
255
238
20
17
17
17
17
17
52
165
255
255
255
255
255
255
255
255
255
255
255
255
255
255
255
255
255
255
255
255
255
255
255
255
255
255
255
255
255
255
255
255
255
255
61
17
17
17
17
249
255
255
255
255
255
255
255
255
255
255
255
175
17
17
17
17
17
145
245
255
255
255
255
255
255
255
255
255
255
255
255
255
255
255
255
255
255
255
255
255
255
255
255
255
255
255
255
255
255
255
255
255
255
255
216
17
17
17
17
121
255
255
255
255
255
255
255
255
255
255
255
170
17
17
17
17
17
17
24
255
255
255
255
255
255
255
255
255
255
255
255
255
255
255
255
255
255
255
255
255
255
255
255
255
255
255
255
255
255
255
255
255
255
255
255
77
17
17
21
29
159
255
255
255
255
255
255
255
255
255
255
255
166
17
17
17
17
17
17
85
246
255
255
255
255
255
255
255
255
255
255
255
255
255
255
255
255
255
255
255
255
255
255
255
255
255
255
255
255
255
255
255
255
255
240
17
39
17
17
88
70
27
233
255
255
255
255
255
255
255
255
255
255
247
188
122
17
17
17
17
17
114
215
254
255
255
255
255
255
255
255
255
255
255
255
255
255
255
255
255
255
255
255
255
255
255
255
255
255
255
255
255
255
255
255
62
76
30
208
17
65
17
198
255
255
255
255
255
255
255
255
255
255
255
255
255
150
17
17
17
17
17
17
17
86
166
226
255
255
255
255
255
255
255
255
255
255
255
255
255
255
255
255
255
255
255
255
255
255
255
255
255
255
255
255
218
106
88
74
33
113
17
222
255
255
255
255
255
255
255
255
255
255
255
255
255
255
23
17
17
66
17
50
17
17
17
17
107
255
255
255
255
255
255
255
255
255
255
255
255
255
255
255
255
255
255
255
255
255
255
255
255
255
255
255
253
136
229
81
66
255
115
255
255
255
255
255
255
255
255
255
255
255
255
255
255
255
249
255
38
27
138
66
199
17
134
17
17
255
255
255
255
255
255
255
255
255
255
255
255
255
255
255
255
255
255
255
255
255
255
255
255
255
255
255
255
255
255
195
255
254
255
255
255
255
255
255
255
255
255
255
255
255
255
255
255
255
255
255
119
36
179
17
94
17
51
23
103
255
255
255
255
255
255
255
255
255
255
255
255
255
255
255
255
255
255
255
255
255
255
255
255
255
255
255
255
255
255
255
255
255
255
255
255
255
255
255
255
255
255
255
255
255
255
255
255
255
255
255
255
164
215
27
156
109
75
138
255
255
255
255
255
255
255
255
255
255
255
255
255
255
255
255
255
255
255
255
255
255
255
255
255
255
255
255
255
255
255
255
255
255
255
255
255
255
255
255
255
255
255
255
255
255
255
255
255
255
255
255
255
255
255
255
255
226
231
255
255
255
255
255
255
255
255
255
255
255
255
255
255
255
255
255
255
255
255
255
255
255
255
255
255
255
255
255
255
255
255
255
255
255
255
255
255
255
255
255
255
255
255
255
255
255
255
255
255
255
255
255
255
255
255
255
255
255
255
255
255
255
255
255
255
255
255
255
255
255
255
255
255
