P2
# CREATOR: GIMP PNM Filter Version 1.1
64 51
255
5
1
3
5
5
5
4
4
5
5
8
5
14
11
13
9
15
14
14
14
16
16
18
19
18
21
20
21
20
25
21
21
23
20
24
19
21
18
20
27
24
19
19
19
18
16
18
16
15
13
14
12
12
12
9
12
14
13
13
12
9
8
7
6
5
1
3
5
5
5
4
3
6
5
6
4
13
9
12
9
14
14
14
14
15
16
18
18
18
18
20
20
23
23
14
21
19
23
23
23
21
16
23
21
23
19
18
18
16
16
18
16
14
13
13
11
12
12
9
12
14
12
12
12
8
7
7
5
5
1
3
5
5
5
3
3
6
4
5
4
12
9
11
9
13
14
14
14
15
16
16
18
18
16
19
15
15
34
44
28
21
21
15
18
23
20
16
25
21
18
16
16
15
15
16
16
12
12
13
9
12
12
9
12
13
12
12
11
8
7
6
5
4
1
3
5
5
5
2
2
6
4
4
4
12
9
9
8
12
13
14
14
14
15
16
16
15
16
15
36
93
117
93
78
54
21
20
21
13
19
18
16
19
16
16
15
14
15
16
16
11
12
12
8
11
12
8
12
13
12
12
11
7
7
6
5
4
1
3
5
5
4
2
2
5
3
3
5
12
9
7
8
11
13
14
13
13
15
16
16
19
6
62
92
76
82
93
103
93
79
51
19
19
21
15
20
18
16
16
15
13
14
16
15
9
12
12
7
11
12
8
11
13
13
13
11
7
7
7
5
3
2
3
4
4
3
2
3
5
3
3
5
11
8
6
7
11
13
13
12
12
14
16
15
5
74
82
104
150
198
215
212
205
146
63
12
23
15
18
19
16
16
16
15
13
14
15
14
8
12
11
6
9
12
7
11
13
13
13
11
7
7
6
4
3
2
3
4
4
3
1
3
5
3
2
5
9
7
5
8
12
13
12
9
11
14
16
15
19
105
96
145
204
235
239
226
214
185
113
14
16
20
18
16
15
15
16
14
12
13
14
12
7
12
11
5
9
12
7
11
13
13
13
9
6
7
6
3
2
2
3
4
3
2
1
3
5
3
2
5
7
5
5
8
12
13
11
9
11
14
16
15
18
110
108
153
200
199
168
188
199
161
129
29
14
19
13
19
14
14
15
14
12
12
13
11
6
11
9
5
9
12
7
12
12
12
12
9
6
6
6
3
4
1
3
6
3
2
1
7
4
3
2
6
7
5
3
8
11
11
11
9
7
15
14
13
15
102
117
161
182
153
106
143
143
86
108
43
11
15
19
14
14
15
14
14
9
14
13
12
5
11
11
5
12
8
7
11
9
14
9
8
6
8
5
3
2
2
4
5
3
2
2
2
3
3
2
6
6
5
3
7
12
12
12
9
6
14
13
13
31
154
155
177
197
203
175
196
189
152
130
42
13
20
18
13
14
15
13
13
9
13
13
11
5
11
9
5
12
9
8
12
11
14
9
8
6
7
5
4
3
2
1
3
7
2
1
6
3
2
2
6
6
4
3
6
12
12
12
8
5
13
13
14
24
171
180
176
188
225
209
188
180
189
164
25
20
12
14
18
14
15
13
13
8
13
13
11
4
9
9
5
12
9
8
12
12
13
11
9
6
7
4
5
2
1
5
4
2
1
3
3
2
2
2
7
5
3
3
5
12
12
12
8
5
13
14
15
3
117
206
173
186
180
182
164
97
121
133
24
11
20
18
13
14
14
13
12
7
13
13
9
4
9
9
5
12
9
8
11
12
13
11
11
7
7
3
5
3
1
5
2
4
3
1
5
2
2
2
7
5
3
3
6
11
11
11
7
5
13
14
16
11
36
135
154
171
170
152
145
115
106
94
16
16
15
12
16
14
14
13
12
6
13
13
8
4
9
8
4
11
8
7
11
12
12
12
11
7
7
3
5
2
2
7
2
3
1
1
6
2
2
3
8
4
3
3
7
11
11
9
7
5
13
15
16
16
0
65
146
156
172
177
117
94
118
80
3
18
13
19
15
15
14
13
12
5
13
13
7
4
9
8
4
11
8
7
9
12
12
11
8
5
7
3
5
3
1
3
2
2
0
3
5
2
2
4
9
3
2
3
8
11
11
9
7
5
13
14
15
13
7
62
164
122
143
207
185
153
118
32
13
13
20
19
13
15
14
13
12
5
13
14
7
3
9
8
5
12
9
8
11
12
12
11
6
4
7
2
4
3
2
0
56
118
46
0
5
2
2
5
9
3
2
3
9
12
11
9
7
5
13
14
14
7
0
79
178
137
82
112
134
121
65
2
11
14
13
13
15
16
14
13
12
5
13
14
7
3
9
8
5
12
9
9
13
12
12
11
5
3
7
2
4
2
2
0
33
136
114
23
1
2
2
5
1
2
1
3
8
12
13
9
3
5
3
6
35
64
86
135
182
166
131
49
33
84
62
59
59
16
9
12
14
16
13
9
13
3
14
12
6
3
9
9
4
14
7
0
6
11
12
3
20
101
42
0
5
4
2
4
12
80
115
109
2
2
2
7
86
32
1
2
9
12
8
7
7
23
62
104
130
139
134
134
221
193
154
94
91
147
64
90
115
100
55
26
13
12
15
14
14
4
11
11
8
5
11
5
5
8
35
106
27
8
9
2
94
117
87
49
0
2
4
2
9
86
106
140
85
0
0
82
150
29
0
1
24
37
31
35
50
65
89
117
139
137
130
131
179
223
196
177
217
150
60
93
118
117
117
84
36
18
14
14
14
2
14
18
4
3
14
6
6
5
40
191
78
1
0
98
170
92
65
7
5
1
5
1
11
99
98
127
163
60
0
120
85
0
0
37
56
32
44
43
46
61
49
39
79
129
142
129
146
146
138
147
167
94
82
100
120
86
37
32
46
53
35
15
8
3
12
14
4
5
8
9
3
7
23
152
75
0
86
174
135
97
35
1
5
3
2
7
0
23
80
127
129
147
118
150
54
0
9
70
20
39
31
41
47
53
55
23
13
47
96
103
112
126
118
109
96
107
117
117
62
15
8
37
69
60
57
40
32
27
16
7
5
5
14
6
5
13
36
158
122
114
174
176
95
74
81
11
4
3
3
6
3
7
64
115
121
162
194
183
49
25
70
42
27
33
40
42
36
45
52
15
12
20
12
74
90
118
124
121
127
115
98
32
21
20
11
41
64
56
51
40
40
46
56
47
12
3
14
5
5
2
63
199
182
168
131
164
135
56
33
0
4
4
3
3
3
0
44
129
148
175
193
151
47
73
65
14
39
28
39
34
37
46
47
18
12
13
25
55
86
35
85
87
84
113
71
20
26
9
11
44
57
49
45
43
37
28
46
70
57
24
9
9
5
3
82
180
184
153
145
149
121
59
55
6
4
1
5
2
3
1
11
83
138
171
175
86
61
55
21
29
45
16
42
33
37
43
37
14
8
8
11
32
91
36
64
83
66
115
46
20
8
14
8
40
51
47
46
40
46
43
25
39
64
63
40
3
12
21
68
160
184
184
156
128
91
62
59
4
5
3
2
5
3
1
4
41
90
132
123
36
24
25
28
47
35
14
39
34
37
40
39
13
7
11
5
6
74
56
52
61
76
91
15
11
9
11
6
35
50
49
55
32
44
61
31
27
36
57
68
37
33
15
39
123
182
180
125
62
11
2
2
1
5
2
5
2
1
0
41
32
37
52
49
25
2
23
51
41
19
19
35
26
32
35
32
6
5
25
41
1
45
62
40
34
84
53
3
20
13
6
12
39
47
47
56
35
46
66
39
27
36
43
49
37
34
18
23
78
132
101
37
32
5
12
6
0
6
1
5
2
4
34
52
16
35
12
26
36
3
19
33
29
9
25
35
25
36
43
34
4
5
36
53
5
31
65
28
41
91
26
12
53
32
3
9
36
45
43
49
32
40
67
53
43
53
47
34
32
23
18
6
7
28
12
1
37
16
3
11
1
6
5
5
2
15
69
32
5
47
55
37
9
0
11
19
34
25
32
33
19
29
39
33
3
5
7
11
4
9
61
32
69
76
5
12
50
27
3
11
39
43
39
41
33
36
60
53
42
49
39
31
34
12
13
5
0
0
0
1
36
35
12
6
1
5
3
4
1
40
62
13
0
0
0
0
0
0
13
20
18
27
36
34
19
27
36
34
4
5
5
5
6
1
62
55
82
47
1
4
12
5
4
16
37
34
40
39
39
33
40
35
29
36
32
31
27
1
1
0
0
0
0
0
27
28
31
4
2
5
5
4
1
44
43
2
1
0
0
0
0
0
5
21
15
20
29
29
19
26
29
28
2
1
5
8
5
1
49
68
84
31
2
7
3
3
5
13
32
35
42
40
45
33
26
24
27
36
33
29
15
0
0
0
0
0
0
5
29
20
26
11
1
4
5
3
7
35
35
0
0
0
0
0
0
0
0
11
25
18
29
29
23
26
21
23
2
3
3
6
5
5
29
53
79
20
1
6
5
5
3
7
28
43
39
39
45
35
27
23
23
27
20
25
14
0
0
0
0
0
1
13
24
26
28
14
0
4
5
4
19
24
24
1
0
0
0
0
0
0
0
5
25
18
20
23
24
28
19
16
1
2
4
5
7
8
26
35
71
13
5
5
3
3
2
7
21
34
35
33
33
24
23
19
16
20
12
21
13
0
0
0
0
0
0
9
26
25
35
5
1
5
5
1
27
23
21
2
0
0
0
0
0
0
0
0
3
20
19
21
20
19
19
5
0
3
3
4
9
9
33
41
47
8
6
9
3
4
2
3
15
31
31
33
20
24
13
23
18
8
15
25
24
5
0
0
0
0
0
0
16
40
36
3
2
3
3
2
23
16
14
1
0
0
0
0
0
0
0
1
3
11
15
15
23
24
18
4
0
2
5
7
5
11
27
95
76
3
7
7
2
1
4
11
16
34
26
28
24
15
7
15
6
6
15
12
21
15
11
0
0
6
1
1
6
50
36
1
0
7
6
9
19
16
11
2
0
0
2
0
9
14
7
12
5
15
13
5
18
27
20
9
3
4
3
4
6
21
106
227
241
110
2
6
11
2
1
18
20
28
23
21
23
4
5
15
4
9
0
1
11
15
24
2
0
18
1
7
5
47
23
2
1
5
3
5
5
12
8
5
3
0
12
9
14
16
14
24
13
15
5
0
15
27
14
5
2
2
3
8
1
51
182
239
255
224
29
3
3
2
1
18
18
21
21
21
15
0
5
12
2
2
7
14
12
16
20
0
5
15
0
11
11
35
9
4
2
3
5
2
1
11
6
5
6
2
7
34
27
14
9
27
28
21
0
0
15
27
8
1
1
2
5
5
0
50
138
231
252
236
40
3
2
2
3
21
16
14
14
26
18
0
2
8
16
24
32
24
14
28
23
1
11
18
0
4
14
25
8
3
1
5
4
1
1
8
5
3
8
6
3
37
25
19
11
18
21
13
5
3
18
23
6
1
1
3
1
6
4
7
87
225
254
152
2
1
3
0
1
15
13
13
12
21
8
0
11
24
33
31
23
16
12
28
26
15
20
21
0
3
15
14
9
4
1
5
5
3
1
3
4
0
1
1
5
16
2
18
21
23
24
18
23
23
23
25
20
15
19
19
24
15
23
23
59
92
110
31
20
19
14
14
13
15
13
19
9
21
11
0
0
0
13
26
25
39
16
21
25
33
28
18
0
6
11
6
6
6
1
3
2
2
1
1
8
1
0
0
4
13
3
23
16
15
18
16
18
24
20
21
23
18
20
19
21
25
21
28
24
19
13
32
29
34
33
36
32
35
35
26
28
32
29
26
24
24
23
24
28
60
18
25
34
39
31
13
0
9
3
5
6
5
0
2
3
1
1
3
6
4
0
0
1
9
5
16
16
18
16
16
16
15
18
19
15
15
18
19
19
20
23
23
27
28
26
28
28
31
27
31
33
31
31
27
28
24
28
34
32
32
34
29
19
16
11
15
27
33
26
7
4
8
1
4
8
3
1
2
3
1
1
2
5
3
1
0
0
5
4
15
14
14
13
13
14
14
16
18
15
14
16
18
19
19
20
20
24
26
25
27
27
28
26
28
29
27
28
25
24
23
25
26
25
29
31
26
15
13
13
14
12
19
19
3
5
8
1
5
8
3
1
3
3
2
1
3
3
3
3
0
0
3
4
15
13
13
12
13
12
13
15
16
13
13
14
16
18
16
19
19
23
25
23
25
26
27
25
27
27
25
25
23
23
25
24
20
23
29
31
26
15
18
16
8
2
5
15
13
7
7
1
5
8
3
1
3
3
2
1
5
3
3
5
0
0
1
4
14
12
13
12
13
12
13
15
14
12
12
14
16
16
15
19
20
23
24
21
23
26
26
26
26
25
24
24
21
23
26
23
19
24
29
28
26
14
18
5
1
0
0
3
11
8
5
1
6
8
3
1
2
2
2
2
5
3
3
7
1
0
0
3
12
8
9
9
9
12
14
14
13
11
12
14
18
18
14
18
19
20
21
20
21
24
23
25
26
23
23
23
20
20
23
20
19
25
26
24
24
12
8
1
1
9
9
7
12
8
4
1
7
8
3
1
2
3
2
2
4
2
3
9
5
1
0
3
9
5
7
7
6
11
13
13
11
9
9
13
16
19
14
15
16
15
18
18
20
19
18
23
24
20
20
20
19
19
19
18
20
25
24
20
21
14
5
2
7
12
9
9
5
7
3
1
7
7
3
1
2
3
1
2
3
2
3
8
9
5
0
3
6
4
5
5
4
7
11
11
7
6
7
9
14
20
14
15
16
15
16
16
19
14
12
20
21
18
19
18
16
18
18
18
20
23
21
19
19
8
5
4
8
7
7
11
8
6
2
2
6
5
3
1
1
2
1
3
4
2
3
5
9
6
0
1
3
2
4
4
3
5
9
8
5
5
5
7
12
20
14
18
20
18
18
16
18
12
9
19
20
16
19
18
16
16
15
16
18
18
18
16
15
5
6
3
3
9
11
8
6
6
2
2
6
5
3
1
2
2
1
4
3
3
5
9
9
3
0
1
1
2
2
3
3
5
7
5
4
4
4
5
2
11
19
25
41
29
31
14
18
12
7
8
16
14
15
14
13
14
13
14
15
16
16
14
13
3
4
3
5
8
7
8
8
6
1
2
6
5
4
1
2
3
2
4
3
2
5
8
8
1
0
1
2
1
1
2
3
16
14
5
3
2
2
2
1
3
13
21
23
29
26
11
9
11
6
7
15
13
15
13
12
13
12
12
13
15
15
13
12
1
2
2
5
9
7
7
7
5
1
1
5
4
3
1
1
2
1
3
3
2
6
11
12
5
0
1
1
0
0
2
3
14
12
5
2
1
1
1
0
0
4
13
16
25
24
13
11
8
5
5
13
12
13
12
11
11
9
9
12
13
13
11
9
1
2
2
5
9
7
7
7
5
1
1
5
4
3
1
1
